<svg width="24" height="25" viewBox="0 0 24 25" fill="none" xmlns="http://www.w3.org/2000/svg">
<g opacity="0.6">
<path fill-rule="evenodd" clip-rule="evenodd" d="M11 17.7H13V11.7H11V17.7ZM12 2.69995C6.48 2.69995 2 7.17995 2 12.7C2 18.22 6.48 22.7 12 22.7C17.52 22.7 22 18.22 22 12.7C22 7.17995 17.52 2.69995 12 2.69995ZM12 20.7C7.59 20.7 4 17.11 4 12.7C4 8.28995 7.59 4.69995 12 4.69995C16.41 4.69995 20 8.28995 20 12.7C20 17.11 16.41 20.7 12 20.7ZM11 9.69995H13V7.69995H11V9.69995Z" fill="#999EA7"/>
</g>
</svg>
